<?xml version="1.0" encoding="UTF-8" standalone="no"?>
<!-- Generator: Adobe Illustrator 19.0.0, SVG Export Plug-In . SVG Version: 6.00 Build 0)  -->

<svg
   xmlns:dc="http://purl.org/dc/elements/1.1/"
   xmlns:cc="http://creativecommons.org/ns#"
   xmlns:rdf="http://www.w3.org/1999/02/22-rdf-syntax-ns#"
   xmlns:svg="http://www.w3.org/2000/svg"
   xmlns="http://www.w3.org/2000/svg"
   xmlns:sodipodi="http://sodipodi.sourceforge.net/DTD/sodipodi-0.dtd"
   xmlns:inkscape="http://www.inkscape.org/namespaces/inkscape"
   version="1.1"
   id="Layer_1"
   x="0px"
   y="0px"
   viewBox="0 0 1149.9 244.89999"
   xml:space="preserve"
   inkscape:version="0.91 r13725"
   sodipodi:docname="horizontalLogo.svg"
   width="1149.9"
   height="244.89999"><metadata
     id="metadata32"><rdf:RDF><cc:Work
         rdf:about=""><dc:format>image/svg+xml</dc:format><dc:type
           rdf:resource="http://purl.org/dc/dcmitype/StillImage" /><dc:title></dc:title></cc:Work></rdf:RDF></metadata><defs
     id="defs30" /><sodipodi:namedview
     pagecolor="#ffffff"
     bordercolor="#666666"
     borderopacity="1"
     objecttolerance="10"
     gridtolerance="10"
     guidetolerance="10"
     inkscape:pageopacity="0"
     inkscape:pageshadow="2"
     inkscape:window-width="1830"
     inkscape:window-height="1279"
     id="namedview28"
     showgrid="false"
     inkscape:zoom="0.63195269"
     inkscape:cx="526.10577"
     inkscape:cy="292.59037"
     inkscape:window-x="0"
     inkscape:window-y="310"
     inkscape:window-maximized="0"
     inkscape:current-layer="XMLID_290_" /><style
     type="text/css"
     id="style3">
	.st0{fill:#1B1464;}
	.st1{fill:#F7931E;}
	.st2{fill:#AB0039;}
</style><g
     id="XMLID_507_"
     transform="translate(-69.5,-157.50001)"><g
       id="XMLID_399_"><polygon
         id="XMLID_403_"
         class="st0"
         points="83,260.9 191.5,186.7 301.2,261.5 314.7,241.8 198.3,162.2 191.6,157.5 184.8,162.2 131,199 131,180.3 100.9,180.3 100.9,219.6 69.5,241.1 "
         style="fill:#1b1464" /><path
         id="XMLID_400_"
         class="st1"
         d="m 192.1,215.2 c -51.7,0 -93.6,41.9 -93.6,93.6 0,51.7 41.9,93.6 93.6,93.6 51.7,0 93.6,-41.9 93.6,-93.6 0,-51.6 -41.9,-93.6 -93.6,-93.6 z m 11.5,156.7 0,20.8 -23.8,0 0,-19.2 c -11.5,-0.9 -22.9,-4.3 -30,-9 l -2.4,-1.6 7.4,-25.9 4.3,2.5 c 8.7,5.1 19.1,8.1 28.6,8.1 10.3,0 16.9,-4.6 16.9,-11.6 0,-4.8 -2.3,-10.1 -18.8,-16.1 -18,-6.5 -36.4,-16.2 -36.4,-38.7 0,-18.1 12,-31.8 31.5,-36.4 l 0,-19.8 23.8,0 0,18.4 c 9.2,0.7 17.2,2.8 24.9,6.7 l 2.9,1.4 -7.5,25.4 -5.2,-2.4 c -4.6,-2.2 -12.4,-5.8 -23.9,-5.8 -9.2,0 -14.7,3.7 -14.7,9.8 0,5.4 5.2,9.2 21.3,15.6 23.9,9 34.1,20.9 34.1,39.8 0.1,18.9 -12.8,33.5 -33,38 z"
         inkscape:connector-curvature="0"
         style="fill:#f7931e" /></g><g
       id="XMLID_412_"><g
         id="XMLID_290_"
         transform="matrix(1.3194969,0,0,1.4813375,-104.76302,-180.89865)"><path
           id="XMLID_327_"
           class="st2"
           d="m 376.6,284.8 c -1,3.6 -1.5,8.4 -1.6,14.3 l -3.6,0 0,-4.1 c 0,-2.7 -0.4,-4.5 -1.1,-5.5 -0.7,-1 -2.6,-2 -5.7,-3.1 -3.1,-1.1 -6.3,-1.6 -9.7,-1.6 -5.5,0 -9.9,1.4 -13,4.2 -3.2,2.8 -4.7,6.4 -4.7,10.7 0,2.8 0.6,5.1 1.9,7.1 1.3,2 3,3.4 5.2,4.3 2.2,0.9 6.8,1.7 13.9,2.3 7.1,0.7 11.9,1.6 14.4,2.7 2.5,1.1 4.5,3 6,5.5 1.5,2.5 2.3,5.5 2.3,9 0,6.9 -2.9,12.9 -8.7,17.9 -5.8,5 -13.5,7.5 -23.2,7.5 -3.3,0 -6.7,-0.3 -10,-1 -3.4,-0.7 -6.8,-1.7 -10.2,-3 0.6,-4.1 0.9,-9.5 0.9,-15.9 l 3.5,0 0,2.6 c 0,3.3 0.2,5.4 0.5,6.2 0.3,0.8 1.2,1.6 2.4,2.5 1.9,1.3 4.2,2.4 6.8,3.1 2.6,0.7 5.5,1.1 8.5,1.1 6.5,0 11.6,-1.5 15.1,-4.6 3.6,-3.1 5.3,-7 5.3,-11.7 0,-2.8 -0.6,-5.1 -1.8,-7 -1.2,-1.9 -2.9,-3.3 -5.1,-4.3 -2.2,-0.9 -6.2,-1.6 -12.1,-2.1 -7.8,-0.6 -13.1,-1.6 -15.9,-2.8 -2.8,-1.2 -5,-3.2 -6.6,-5.9 -1.6,-2.7 -2.4,-6 -2.4,-10 0,-6.7 2.4,-12.2 7.3,-16.5 4.9,-4.3 11.6,-6.4 20.2,-6.4 3.5,0 6.9,0.4 10.4,1.1 3.9,0.8 7.3,1.9 10.8,3.4 z"
           inkscape:connector-curvature="0"
           style="fill:#ab0039" /><path
           id="XMLID_325_"
           class="st2"
           d="m 403.2,278.1 c -0.6,10.1 -0.9,19.3 -0.9,27.4 l 0,26.6 c 0,10.6 0.2,16.5 0.7,18 0.2,0.7 1.4,1.2 3.4,1.4 l 4.4,0.5 0,3 c -3.8,-0.2 -7.4,-0.4 -10.8,-0.4 -3.8,0 -8.8,0.1 -14.9,0.4 l 0,-3 4.5,-0.4 c 2,-0.2 3.1,-0.7 3.4,-1.5 0.4,-1.3 0.7,-7.5 0.7,-18.4 l 0,-26.4 -0.1,-9.9 -0.2,-6.8 c 0,-1.7 -0.2,-2.7 -0.6,-3.1 -0.6,-0.6 -1.7,-0.8 -3.5,-0.8 l -4.2,0 0,-3.1 c 7.2,-0.7 12.9,-2 17.2,-4 l 0.9,0.5 z"
           inkscape:connector-curvature="0"
           style="fill:#ab0039" /><path
           id="XMLID_322_"
           class="st2"
           d="m 433.1,304.7 1.2,0.8 c -0.2,2.6 -0.4,5.4 -0.5,8.5 -0.2,10.1 -0.4,17.5 -0.4,22.3 0,4.5 0.2,8.3 0.5,11.5 0.1,1.2 0.5,2.1 1,2.6 0.5,0.5 1.8,0.8 3.7,1.1 l 3.5,0.5 0,3 c -5,-0.2 -9.6,-0.4 -13.8,-0.4 -4.1,0 -8.2,0.1 -12.3,0.4 l 0,-3 4.5,-0.5 c 1.7,-0.1 2.8,-0.5 3.2,-1 0.4,-0.5 0.6,-2.2 0.8,-5 0.2,-4.4 0.3,-10.4 0.3,-18.2 0,-5.4 -0.1,-9.5 -0.3,-12.4 -0.1,-1.1 -0.4,-1.8 -0.9,-2.3 -0.5,-0.4 -1.7,-0.7 -3.6,-0.7 l -3.9,0 0,-3 c 4.2,-0.6 7.3,-1.2 9.3,-1.7 1.9,-0.4 4.5,-1.2 7.7,-2.5 z m -4.2,-22.9 c 1.6,0 3,0.6 4.1,1.7 1.1,1.2 1.7,2.5 1.7,4.2 0,1.6 -0.6,3 -1.7,4.1 -1.1,1.1 -2.5,1.7 -4.1,1.7 -1.6,0 -3,-0.6 -4.1,-1.7 -1.1,-1.1 -1.7,-2.5 -1.7,-4.1 0,-1.6 0.6,-3 1.7,-4.2 1.1,-1.1 2.5,-1.7 4.1,-1.7 z"
           inkscape:connector-curvature="0"
           style="fill:#ab0039" /><path
           id="XMLID_320_"
           class="st2"
           d="m 486.2,347.7 1.4,1.2 -2.1,3.3 c -2.3,1.3 -4.8,2.2 -7.2,2.9 -2.5,0.6 -5,1 -7.6,1 -5.1,0 -9.4,-1 -12.9,-2.9 -3.5,-1.9 -6.3,-4.7 -8.2,-8.4 -1.9,-3.7 -2.9,-8 -2.9,-13 0,-4.5 0.7,-8.3 2.2,-11.6 1.5,-3.3 3.6,-5.9 6.2,-7.7 2.7,-1.9 6,-3.7 10,-5.5 2.8,-1.3 6,-1.9 9.5,-1.9 2.7,0 4.9,0.2 6.9,0.7 1.9,0.4 4,1.2 6.2,2.3 -0.9,4.6 -1.3,9.1 -1.4,13.7 l -3.3,0 0,-2.8 c 0,-2.2 -0.3,-3.8 -1,-4.7 -0.6,-0.9 -2.1,-1.8 -4.4,-2.7 -2.3,-0.9 -4.8,-1.3 -7.5,-1.3 -4.7,0 -8.2,1.4 -10.8,4.3 -2.5,2.8 -3.8,7.1 -3.8,12.7 0,7.3 1.9,13.1 5.6,17.5 3.3,4 7.7,5.9 12.9,5.9 2.1,0 4.1,-0.3 6.1,-0.8 2.2,-0.5 4.1,-1.2 6.1,-2.2 z"
           inkscape:connector-curvature="0"
           style="fill:#ab0039" /><path
           id="XMLID_318_"
           class="st2"
           d="m 511.1,329.1 0,6.6 c 0,8.7 0.3,13.6 0.9,14.7 0.6,1.1 2.3,1.7 5.2,1.7 l 3.2,0 0,3 -2.8,-0.1 c -5,-0.2 -8.3,-0.3 -9.9,-0.3 l -13.8,0.4 0,-3 3.1,0 c 2.7,0 4.2,-0.5 4.7,-1.5 0.5,-1 0.7,-5.9 0.7,-14.8 l 0,-30.9 c 0,-11.4 -0.3,-17.9 -0.8,-19.2 -0.3,-0.8 -1.7,-1.2 -4,-1.2 l -4.4,0 0,-3 c 2.9,0 7.1,-0.7 12.5,-2.1 l 5.2,-1.6 c 0.6,0 0.8,0.3 0.8,1 l -0.3,5.2 c -0.1,1.3 -0.2,8.5 -0.3,21.7 l 0,20.8 0.7,0.4 c 3.1,-2.3 5.8,-4.5 8,-6.3 1.1,-1 3.7,-3.4 7.8,-7.2 l 7.4,-7 10.4,0 0,3 -1.9,0 c -1.2,0 -2.8,0.6 -4.7,1.7 -3.8,2.2 -10,6.9 -18.6,14.1 6.5,6.7 10.5,10.8 11.9,12.1 6.9,6.4 11,10.1 12.5,11.2 0.9,0.7 1.6,1.2 2.2,1.4 0.6,0.3 1.5,0.4 2.6,0.6 l 0,2.3 c -3,1.3 -6.3,2.5 -9.9,3.3 -2,-1.7 -6.8,-6.3 -14.4,-13.9 -5.5,-5.6 -10,-9.9 -13.5,-12.9 l -0.5,0 z"
           inkscape:connector-curvature="0"
           style="fill:#ab0039" /><path
           id="XMLID_316_"
           class="st2"
           d="m 586.1,355.8 c -1.6,-4.6 -3.1,-9 -4.8,-13 l -18.5,-46.3 c -2.7,-6.7 -4.2,-10.4 -4.7,-11 -0.4,-0.6 -1.9,-0.9 -4.5,-0.9 l -2.1,0 0,-3.3 c 5.4,0.2 10,0.4 13.8,0.4 4,0 8.8,-0.1 14.3,-0.4 l 0,3.3 -5.1,0 c -1.8,0 -2.9,0.2 -3.4,0.5 -0.5,0.3 -0.8,0.8 -0.8,1.5 0,0.5 0.1,1 0.3,1.5 l 6.7,17.9 14.1,35.9 13.7,-34.2 c 4.6,-11.4 6.9,-18.1 6.9,-20.1 0,-1.6 -0.9,-2.4 -2.8,-2.5 l -2.1,-0.2 -4.4,-0.5 0,-3.3 c 4.6,0.2 8.3,0.4 11.3,0.4 3.1,0 7,-0.1 11.7,-0.4 l 0,3.3 -2.1,0 c -1.7,0 -2.9,0.4 -3.6,1.2 -0.7,0.8 -2.1,3.5 -4,8.3 l -17.4,42.6 c -3.3,8 -5.6,14.4 -7,19.2 l -5.5,0 z"
           inkscape:connector-curvature="0"
           style="fill:#ab0039" /><path
           id="XMLID_313_"
           class="st2"
           d="m 630.6,330.2 c 0,-4.8 1.1,-9.1 3.3,-12.9 2.2,-3.8 5.3,-6.9 9.3,-9 4,-2.2 8.5,-3.3 13.6,-3.3 7.3,0 13.2,2.2 17.7,6.5 4.4,4.3 6.6,10.1 6.6,17.4 0,8.6 -2.9,15.4 -8.6,20.4 -5.1,4.5 -11.3,6.8 -18.5,6.8 -6.9,0 -12.5,-2.3 -16.8,-7 -4.5,-4.7 -6.6,-11 -6.6,-18.9 z m 9.7,-3.7 c 0,7.1 1.5,13.2 4.4,18.3 2.9,5.1 7.1,7.6 12.6,7.6 4.2,0 7.5,-1.6 10.1,-4.8 2.6,-3.2 3.9,-8 3.9,-14.5 0,-5.2 -0.8,-9.7 -2.3,-13.6 -1.5,-3.8 -3.5,-6.6 -6,-8.3 -2.5,-1.7 -5.3,-2.6 -8.3,-2.6 -2.7,0 -5.2,0.7 -7.4,2.1 -2.2,1.4 -3.8,3.2 -4.8,5.5 -1.5,3.2 -2.2,6.6 -2.2,10.3 z"
           inkscape:connector-curvature="0"
           style="fill:#ab0039" /><path
           id="XMLID_311_"
           class="st2"
           d="m 728.2,355 0.6,-9.3 -3,3.3 c -2.4,2.6 -4.8,4.4 -7.3,5.5 -2.5,1.1 -5.5,1.6 -9.1,1.6 -3.1,0 -5.8,-0.7 -8,-2 -2.2,-1.3 -3.9,-3 -4.9,-5.1 -1,-2.1 -1.5,-5.4 -1.5,-9.9 0,-2.3 0.1,-5.1 0.2,-8.2 l 0.2,-8.3 c 0,-5.8 -0.2,-9.1 -0.5,-9.7 -0.3,-0.7 -1.4,-1 -3.3,-1 l -4.6,0 0,-2.9 c 4.7,-0.4 9,-1.3 13,-2.6 l 4.3,-1.6 c 0.6,0 0.9,0.4 0.9,1.3 l -0.4,5.3 c -0.5,7.3 -0.7,14.1 -0.7,20.4 0,6.3 0.3,10.3 0.8,12 0.5,1.7 1.6,3.2 3.3,4.3 1.7,1.2 3.7,1.7 6,1.7 3.2,0 6.1,-1 8.8,-3.1 2.7,-2.1 4.4,-4.2 5.2,-6.3 0.4,-1.2 0.7,-4.8 0.7,-10.9 0,-10.2 -0.2,-15.8 -0.6,-16.7 -0.3,-0.7 -1.9,-1.1 -4.7,-1.1 l -4.1,0 0,-2.7 c 3.6,-0.4 6.6,-0.9 9.1,-1.4 2.5,-0.6 5.1,-1.4 7.9,-2.5 0.3,-0.2 0.7,-0.3 0.9,-0.3 0.6,0 0.9,0.3 0.9,1 l -0.2,4.8 c -0.5,11.8 -0.8,22.2 -0.8,31.2 0,5 0.3,7.9 0.8,8.6 0.8,1.1 2.4,1.6 4.9,1.6 l 3,0 0,3 c -4.3,-0.2 -8,-0.4 -11,-0.4 -2.3,0 -4.6,0.2 -6.8,0.4 z"
           inkscape:connector-curvature="0"
           style="fill:#ab0039" /><path
           id="XMLID_309_"
           class="st2"
           d="m 790.6,347.7 1.4,1.2 -2.1,3.3 c -2.3,1.3 -4.8,2.2 -7.2,2.9 -2.5,0.6 -5,1 -7.6,1 -5.1,0 -9.4,-1 -12.9,-2.9 -3.5,-1.9 -6.3,-4.7 -8.2,-8.4 -1.9,-3.7 -2.9,-8 -2.9,-13 0,-4.5 0.7,-8.3 2.2,-11.6 1.5,-3.3 3.6,-5.9 6.2,-7.7 2.7,-1.9 6,-3.7 10,-5.5 2.8,-1.3 6,-1.9 9.5,-1.9 2.7,0 4.9,0.2 6.9,0.7 1.9,0.4 4,1.2 6.2,2.3 -0.9,4.6 -1.3,9.1 -1.4,13.7 l -3.3,0 0,-2.8 c 0,-2.2 -0.3,-3.8 -1,-4.7 -0.6,-0.9 -2.1,-1.8 -4.4,-2.7 -2.3,-0.9 -4.8,-1.3 -7.5,-1.3 -4.7,0 -8.2,1.4 -10.8,4.3 -2.5,2.8 -3.8,7.1 -3.8,12.7 0,7.3 1.9,13.1 5.6,17.5 3.3,4 7.7,5.9 12.9,5.9 2.1,0 4.1,-0.3 6.1,-0.8 2.1,-0.5 4.1,-1.2 6.1,-2.2 z"
           inkscape:connector-curvature="0"
           style="fill:#ab0039" /><path
           id="XMLID_307_"
           class="st2"
           d="m 814.5,314.8 6.8,-6 c 1.6,-1.5 3.1,-2.5 4.7,-3.1 1.5,-0.6 3.4,-0.8 5.6,-0.8 3.8,0 7.2,0.8 10,2.3 2.8,1.5 4.8,3.5 5.8,5.9 1.1,2.4 1.6,6.5 1.6,12.2 l -0.3,15.3 c 0,3.5 0.1,6.2 0.4,8.2 0.1,0.8 0.4,1.4 0.9,1.9 0.5,0.4 1.5,0.7 3,0.8 l 3.9,0.4 0,3 c -3.3,-0.2 -6.6,-0.4 -9.8,-0.4 -2.7,0 -5.4,0.1 -8.1,0.4 0.6,-8.7 0.9,-17.2 0.9,-25.6 0,-5.6 -0.4,-9.4 -1.1,-11.4 -0.7,-2 -2,-3.6 -3.8,-4.8 -1.8,-1.2 -4.1,-1.8 -6.9,-1.8 -2.9,0 -5.5,0.7 -7.8,2 -2.3,1.4 -4,2.9 -4.9,4.7 -0.6,1.3 -0.9,4.3 -0.9,9.1 l 0,9 c 0,8.2 0.2,12.8 0.6,13.6 0.4,0.9 1.8,1.4 4.1,1.6 l 4.5,0.4 0,3 c -5.4,-0.2 -9.7,-0.4 -13,-0.4 -3.4,0 -7.9,0.1 -13.4,0.4 l 0,-3 3.3,-0.4 c 2,-0.2 3.3,-0.5 3.8,-0.9 0.5,-0.3 0.9,-1.1 1,-2.3 0.2,-1.9 0.4,-6 0.4,-12.5 l 0,-34.9 c 0,-9.2 -0.2,-14.4 -0.7,-15.5 -0.3,-0.8 -1.7,-1.1 -4.2,-1.1 l -3.6,0 0,-3.2 c 5.3,-0.6 9.6,-1.3 12.8,-2.3 l 4.2,-1.4 c 0.6,0 0.8,0.4 0.8,1.1 l -0.2,2.1 -0.3,9.3 c -0.2,4.7 -0.3,8.3 -0.3,10.9 l 0,14.2 z"
           inkscape:connector-curvature="0"
           style="fill:#ab0039" /><path
           id="XMLID_304_"
           class="st2"
           d="m 870.2,330 c 0.2,6.8 1.9,12 5.2,15.5 3.3,3.5 7.6,5.3 13,5.3 2.4,0 4.8,-0.4 7.2,-1.2 2.4,-0.8 4.7,-2 7.1,-3.6 l 0.9,0.8 -1.7,4.3 c -2.9,1.7 -5.8,2.9 -8.9,3.7 -3,0.8 -6.2,1.2 -9.4,1.2 -7,0 -12.7,-2.2 -17,-6.7 -4.3,-4.4 -6.4,-10.4 -6.4,-18 0,-5.8 1.2,-10.8 3.6,-15.1 1.6,-2.8 4.5,-5.4 8.8,-7.8 4.3,-2.4 8.4,-3.6 12.5,-3.6 6.1,0 10.9,1.8 14.5,5.4 3.6,3.6 5.4,8.6 5.4,15.1 l -0.1,3.1 c -2.3,0.6 -4.4,0.9 -6.5,1.1 -3.7,0.3 -8.8,0.4 -15.4,0.4 l -12.8,0 z m 0.1,-3.9 c 5.3,0.2 11.2,0.4 17.7,0.4 2.6,0 5.1,-0.1 7.5,-0.4 l 0,-2.9 c 0,-3 -0.6,-5.9 -1.8,-8.6 -0.8,-1.7 -2.1,-3.1 -4,-4.2 -1.9,-1.1 -4.1,-1.7 -6.6,-1.7 -3.9,0 -7,1.4 -9.3,4.2 -2.2,2.8 -3.4,7.2 -3.5,13.2 z"
           inkscape:connector-curvature="0"
           style="fill:#ab0039" /><path
           id="XMLID_302_"
           class="st2"
           d="m 927.8,316.7 c 1.4,-1.3 2.9,-3 4.5,-5.2 1.9,-2.5 3.7,-4.2 5.4,-5.2 1.7,-0.9 3.4,-1.4 5.2,-1.4 1.9,0 3.4,0.2 4.4,0.7 0.5,0.2 0.7,0.5 0.7,1 l -0.1,0.5 c -0.5,2.8 -0.9,6.7 -0.9,11.7 l -2.3,0 c -0.8,-1.8 -1.7,-3 -2.8,-3.7 -1.1,-0.7 -2.4,-1.1 -3.9,-1.1 -2,0 -3.9,0.7 -5.7,2.1 -1.7,1.4 -2.9,3.3 -3.5,5.8 -0.6,2.5 -0.9,7.4 -0.9,14.6 0,4.8 0.2,8.8 0.6,12.1 0.1,1.2 0.5,2 1,2.3 1.3,0.7 3.2,1.1 5.8,1.1 l 3.1,0 0,3 c -5.3,-0.2 -10.3,-0.4 -15,-0.4 -4.6,0 -9.1,0.1 -13.6,0.4 l 0,-3 5,-0.4 c 1.8,-0.1 2.9,-0.5 3.3,-1 0.5,-0.5 0.8,-2.2 0.9,-5 0.2,-5 0.4,-10.9 0.4,-17.7 0,-8.3 -0.3,-13.2 -1,-14.6 -0.4,-0.9 -1.9,-1.4 -4.2,-1.4 l -4.3,0 0,-3 c 3.3,-0.4 6.3,-0.9 9,-1.5 2.6,-0.6 5,-1.4 7,-2.3 0.5,-0.2 0.9,-0.4 1.2,-0.4 0.4,0 0.6,0.1 0.8,0.3 0.1,0.2 0.2,0.7 0.2,1.4 l -0.3,10.3 z"
           inkscape:connector-curvature="0"
           style="fill:#ab0039" /><path
           id="XMLID_300_"
           class="st2"
           d="m 957.9,339.2 0,3.4 c 0,2.7 0.2,4.4 0.7,5 0.9,1.1 2.6,2.2 5.3,3.2 2.6,1 5.3,1.6 8,1.6 3.6,0 6.5,-1 8.7,-2.9 2.2,-1.9 3.4,-4.2 3.4,-6.9 0,-2.1 -0.7,-3.8 -2,-5.1 -1.3,-1.3 -3.8,-2.3 -7.5,-3.1 -6.9,-1.4 -11.4,-2.6 -13.6,-3.6 -2.2,-1 -3.9,-2.4 -5,-4.1 -1.1,-1.7 -1.7,-3.8 -1.7,-6.3 0,-4.6 1.7,-8.3 5,-11.2 3.3,-2.9 8.1,-4.3 14.2,-4.3 4.8,0 9.7,1 14.5,2.9 -0.3,2.3 -0.5,6.3 -0.7,11.8 l -3.1,0 c -0.1,-3 -0.4,-5 -1,-6 -0.8,-1.3 -2.2,-2.4 -4.3,-3.5 -2.1,-1 -4.3,-1.6 -6.7,-1.6 -3.1,0 -5.6,0.8 -7.5,2.4 -1.9,1.6 -2.8,3.6 -2.8,6 0,2.3 0.7,4.1 2.2,5.2 1.5,1.2 5.6,2.5 12.3,3.8 5,1 8.2,1.9 9.8,2.8 1.6,0.9 2.9,2.2 3.8,3.9 1,1.8 1.4,3.8 1.4,6.1 0,4.7 -2,8.7 -6,12.1 -4,3.4 -9.3,5.1 -16,5.1 -4.2,0 -9,-0.7 -14.3,-2 -0.9,-0.2 -1.4,-0.6 -1.4,-1.1 l 0.2,-0.7 c 0.1,-0.5 0.3,-1.4 0.4,-2.8 0.3,-3.4 0.5,-6 0.5,-7.8 l -0.1,-2.5 3.3,0 z"
           inkscape:connector-curvature="0"
           style="fill:#ab0039" /></g></g></g></svg>