<?xml version="1.0" encoding="utf-8"?>
<!-- Generator: Adobe Illustrator 19.0.0, SVG Export Plug-In . SVG Version: 6.00 Build 0)  -->
<svg version="1.1" id="Layer_1" xmlns="http://www.w3.org/2000/svg" xmlns:xlink="http://www.w3.org/1999/xlink" x="0px" y="0px"
	 viewBox="0 0 560 560" style="enable-background:new 0 0 560 560;" xml:space="preserve">
<style type="text/css">
	.st0{fill:#1B1464;}
	.st1{fill:#F7931E;}
</style>
<g id="XMLID_358_">
	<polygon id="XMLID_362_" class="st0" points="290.7,79 279.2,70.9 267.5,79 175.7,141.8 175.7,109.8 124.3,109.8 124.3,177 
		70.8,213.7 93.9,247.4 278.9,120.7 466.2,248.5 489.2,214.8 	"/>
	<path id="XMLID_359_" class="st1" d="M280,169.5c-88.2,0-159.8,71.5-159.8,159.8c0,88.2,71.5,159.8,159.8,159.8
		c88.2,0,159.8-71.5,159.8-159.8C439.8,241,368.2,169.5,280,169.5z M299.7,436.9v35.6h-40.6v-32.8c-19.6-1.6-39.1-7.4-51.2-15.4
		l-4-2.7l12.7-44.2l7.3,4.3c14.9,8.8,32.6,13.8,48.8,13.8c17.5,0,28.8-7.8,28.8-19.8c0-8.2-3.9-17.3-32.1-27.5
		c-30.7-11.1-62.1-27.6-62.1-66c0-30.9,20.5-54.3,53.8-62.1v-34h40.6v31.4c15.7,1.2,29.4,4.8,42.4,11.4l4.9,2.5l-12.7,43.3l-8.8-4
		c-7.9-3.7-21.2-9.9-40.8-9.9c-15.7,0-25.1,6.3-25.1,16.8c0,9.2,8.8,15.6,36.3,26.6c40.8,15.3,58.2,35.6,58.2,67.9
		C356.1,404.2,334.1,429.2,299.7,436.9z"/>
</g>
</svg>
