<?xml version="1.0" encoding="utf-8"?>
<!-- Generator: Adobe Illustrator 19.0.0, SVG Export Plug-In . SVG Version: 6.00 Build 0)  -->
<svg version="1.1" id="Layer_1" xmlns="http://www.w3.org/2000/svg" xmlns:xlink="http://www.w3.org/1999/xlink" x="0px" y="0px"
	 viewBox="0 0 1289 560" style="enable-background:new 0 0 1289 560;" xml:space="preserve">
<style type="text/css">
	.st0{fill:#1B1464;}
	.st1{fill:#F7931E;}
	.st2{fill:#AB0039;}
</style>
<g id="XMLID_507_">
	<g id="XMLID_399_">
		<polygon id="XMLID_403_" class="st0" points="198.3,162.2 191.6,157.5 184.8,162.2 131,199 131,180.3 100.9,180.3 100.9,219.6 
			69.5,241.1 83,260.9 191.5,186.7 301.2,261.5 314.7,241.8 		"/>
		<path id="XMLID_400_" class="st1" d="M192.1,215.2c-51.7,0-93.6,41.9-93.6,93.6c0,51.7,41.9,93.6,93.6,93.6
			c51.7,0,93.6-41.9,93.6-93.6C285.7,257.2,243.8,215.2,192.1,215.2z M203.6,371.9v20.8h-23.8v-19.2c-11.5-0.9-22.9-4.3-30-9
			l-2.4-1.6l7.4-25.9l4.3,2.5c8.7,5.1,19.1,8.1,28.6,8.1c10.3,0,16.9-4.6,16.9-11.6c0-4.8-2.3-10.1-18.8-16.1
			c-18-6.5-36.4-16.2-36.4-38.7c0-18.1,12-31.8,31.5-36.4V225h23.8v18.4c9.2,0.7,17.2,2.8,24.9,6.7l2.9,1.4l-7.5,25.4l-5.2-2.4
			c-4.6-2.2-12.4-5.8-23.9-5.8c-9.2,0-14.7,3.7-14.7,9.8c0,5.4,5.2,9.2,21.3,15.6c23.9,9,34.1,20.9,34.1,39.8
			C236.7,352.8,223.8,367.4,203.6,371.9z"/>
	</g>
	<g id="XMLID_412_">
		<g id="XMLID_290_">
			<path id="XMLID_327_" class="st2" d="M376.6,284.8c-1,3.6-1.5,8.4-1.6,14.3h-3.6V295c0-2.7-0.4-4.5-1.1-5.5c-0.7-1-2.6-2-5.7-3.1
				c-3.1-1.1-6.3-1.6-9.7-1.6c-5.5,0-9.9,1.4-13,4.2c-3.2,2.8-4.7,6.4-4.7,10.7c0,2.8,0.6,5.1,1.9,7.1c1.3,2,3,3.4,5.2,4.3
				c2.2,0.9,6.8,1.7,13.9,2.3c7.1,0.7,11.9,1.6,14.4,2.7c2.5,1.1,4.5,3,6,5.5c1.5,2.5,2.3,5.5,2.3,9c0,6.9-2.9,12.9-8.7,17.9
				c-5.8,5-13.5,7.5-23.2,7.5c-3.3,0-6.7-0.3-10-1c-3.4-0.7-6.8-1.7-10.2-3c0.6-4.1,0.9-9.5,0.9-15.9h3.5v2.6c0,3.3,0.2,5.4,0.5,6.2
				c0.3,0.8,1.2,1.6,2.4,2.5c1.9,1.3,4.2,2.4,6.8,3.1c2.6,0.7,5.5,1.1,8.5,1.1c6.5,0,11.6-1.5,15.1-4.6c3.6-3.1,5.3-7,5.3-11.7
				c0-2.8-0.6-5.1-1.8-7c-1.2-1.9-2.9-3.3-5.1-4.3c-2.2-0.9-6.2-1.6-12.1-2.1c-7.8-0.6-13.1-1.6-15.9-2.8c-2.8-1.2-5-3.2-6.6-5.9
				c-1.6-2.7-2.4-6-2.4-10c0-6.7,2.4-12.2,7.3-16.5c4.9-4.3,11.6-6.4,20.2-6.4c3.5,0,6.9,0.4,10.4,1.1
				C369.7,282.2,373.1,283.3,376.6,284.8z"/>
			<path id="XMLID_325_" class="st2" d="M403.2,278.1c-0.6,10.1-0.9,19.3-0.9,27.4v26.6c0,10.6,0.2,16.5,0.7,18
				c0.2,0.7,1.4,1.2,3.4,1.4l4.4,0.5v3c-3.8-0.2-7.4-0.4-10.8-0.4c-3.8,0-8.8,0.1-14.9,0.4v-3l4.5-0.4c2-0.2,3.1-0.7,3.4-1.5
				c0.4-1.3,0.7-7.5,0.7-18.4v-26.4l-0.1-9.9l-0.2-6.8c0-1.7-0.2-2.7-0.6-3.1c-0.6-0.6-1.7-0.8-3.5-0.8h-4.2v-3.1
				c7.2-0.7,12.9-2,17.2-4L403.2,278.1z"/>
			<path id="XMLID_322_" class="st2" d="M433.1,304.7l1.2,0.8c-0.2,2.6-0.4,5.4-0.5,8.5c-0.2,10.1-0.4,17.5-0.4,22.3
				c0,4.5,0.2,8.3,0.5,11.5c0.1,1.2,0.5,2.1,1,2.6c0.5,0.5,1.8,0.8,3.7,1.1l3.5,0.5v3c-5-0.2-9.6-0.4-13.8-0.4
				c-4.1,0-8.2,0.1-12.3,0.4v-3l4.5-0.5c1.7-0.1,2.8-0.5,3.2-1c0.4-0.5,0.6-2.2,0.8-5c0.2-4.4,0.3-10.4,0.3-18.2
				c0-5.4-0.1-9.5-0.3-12.4c-0.1-1.1-0.4-1.8-0.9-2.3c-0.5-0.4-1.7-0.7-3.6-0.7h-3.9v-3c4.2-0.6,7.3-1.2,9.3-1.7
				C427.3,306.8,429.9,306,433.1,304.7z M428.9,281.8c1.6,0,3,0.6,4.1,1.7c1.1,1.2,1.7,2.5,1.7,4.2c0,1.6-0.6,3-1.7,4.1
				c-1.1,1.1-2.5,1.7-4.1,1.7c-1.6,0-3-0.6-4.1-1.7s-1.7-2.5-1.7-4.1c0-1.6,0.6-3,1.7-4.2C425.9,282.4,427.3,281.8,428.9,281.8z"/>
			<path id="XMLID_320_" class="st2" d="M486.2,347.7l1.4,1.2l-2.1,3.3c-2.3,1.3-4.8,2.2-7.2,2.9c-2.5,0.6-5,1-7.6,1
				c-5.1,0-9.4-1-12.9-2.9c-3.5-1.9-6.3-4.7-8.2-8.4c-1.9-3.7-2.9-8-2.9-13c0-4.5,0.7-8.3,2.2-11.6c1.5-3.3,3.6-5.9,6.2-7.7
				c2.7-1.9,6-3.7,10-5.5c2.8-1.3,6-1.9,9.5-1.9c2.7,0,4.9,0.2,6.9,0.7c1.9,0.4,4,1.2,6.2,2.3c-0.9,4.6-1.3,9.1-1.4,13.7h-3.3V319
				c0-2.2-0.3-3.8-1-4.7c-0.6-0.9-2.1-1.8-4.4-2.7c-2.3-0.9-4.8-1.3-7.5-1.3c-4.7,0-8.2,1.4-10.8,4.3c-2.5,2.8-3.8,7.1-3.8,12.7
				c0,7.3,1.9,13.1,5.6,17.5c3.3,4,7.7,5.9,12.9,5.9c2.1,0,4.1-0.3,6.1-0.8C482.3,349.4,484.2,348.7,486.2,347.7z"/>
			<path id="XMLID_318_" class="st2" d="M511.1,329.1v6.6c0,8.7,0.3,13.6,0.9,14.7c0.6,1.1,2.3,1.7,5.2,1.7h3.2v3l-2.8-0.1
				c-5-0.2-8.3-0.3-9.9-0.3l-13.8,0.4v-3h3.1c2.7,0,4.2-0.5,4.7-1.5c0.5-1,0.7-5.9,0.7-14.8v-30.9c0-11.4-0.3-17.9-0.8-19.2
				c-0.3-0.8-1.7-1.2-4-1.2h-4.4v-3c2.9,0,7.1-0.7,12.5-2.1l5.2-1.6c0.6,0,0.8,0.3,0.8,1l-0.3,5.2c-0.1,1.3-0.2,8.5-0.3,21.7v20.8
				l0.7,0.4c3.1-2.3,5.8-4.5,8-6.3c1.1-1,3.7-3.4,7.8-7.2l7.4-7h10.4v3h-1.9c-1.2,0-2.8,0.6-4.7,1.7c-3.8,2.2-10,6.9-18.6,14.1
				c6.5,6.7,10.5,10.8,11.9,12.1c6.9,6.4,11,10.1,12.5,11.2c0.9,0.7,1.6,1.2,2.2,1.4c0.6,0.3,1.5,0.4,2.6,0.6v2.3
				c-3,1.3-6.3,2.5-9.9,3.3c-2-1.7-6.8-6.3-14.4-13.9c-5.5-5.6-10-9.9-13.5-12.9H511.1z"/>
			<path id="XMLID_316_" class="st2" d="M586.1,355.8c-1.6-4.6-3.1-9-4.8-13l-18.5-46.3c-2.7-6.7-4.2-10.4-4.7-11
				c-0.4-0.6-1.9-0.9-4.5-0.9h-2.1v-3.3c5.4,0.2,10,0.4,13.8,0.4c4,0,8.8-0.1,14.3-0.4v3.3h-5.1c-1.8,0-2.9,0.2-3.4,0.5
				c-0.5,0.3-0.8,0.8-0.8,1.5c0,0.5,0.1,1,0.3,1.5l6.7,17.9l14.1,35.9l13.7-34.2c4.6-11.4,6.9-18.1,6.9-20.1c0-1.6-0.9-2.4-2.8-2.5
				l-2.1-0.2l-4.4-0.5v-3.3c4.6,0.2,8.3,0.4,11.3,0.4c3.1,0,7-0.1,11.7-0.4v3.3h-2.1c-1.7,0-2.9,0.4-3.6,1.2c-0.7,0.8-2.1,3.5-4,8.3
				l-17.4,42.6c-3.3,8-5.6,14.4-7,19.2H586.1z"/>
			<path id="XMLID_313_" class="st2" d="M630.6,330.2c0-4.8,1.1-9.1,3.3-12.9c2.2-3.8,5.3-6.9,9.3-9c4-2.2,8.5-3.3,13.6-3.3
				c7.3,0,13.2,2.2,17.7,6.5c4.4,4.3,6.6,10.1,6.6,17.4c0,8.6-2.9,15.4-8.6,20.4c-5.1,4.5-11.3,6.8-18.5,6.8c-6.9,0-12.5-2.3-16.8-7
				C632.7,344.4,630.6,338.1,630.6,330.2z M640.3,326.5c0,7.1,1.5,13.2,4.4,18.3c2.9,5.1,7.1,7.6,12.6,7.6c4.2,0,7.5-1.6,10.1-4.8
				c2.6-3.2,3.9-8,3.9-14.5c0-5.2-0.8-9.7-2.3-13.6c-1.5-3.8-3.5-6.6-6-8.3c-2.5-1.7-5.3-2.6-8.3-2.6c-2.7,0-5.2,0.7-7.4,2.1
				c-2.2,1.4-3.8,3.2-4.8,5.5C641,319.4,640.3,322.8,640.3,326.5z"/>
			<path id="XMLID_311_" class="st2" d="M728.2,355l0.6-9.3l-3,3.3c-2.4,2.6-4.8,4.4-7.3,5.5s-5.5,1.6-9.1,1.6c-3.1,0-5.8-0.7-8-2
				c-2.2-1.3-3.9-3-4.9-5.1c-1-2.1-1.5-5.4-1.5-9.9c0-2.3,0.1-5.1,0.2-8.2l0.2-8.3c0-5.8-0.2-9.1-0.5-9.7c-0.3-0.7-1.4-1-3.3-1h-4.6
				V309c4.7-0.4,9-1.3,13-2.6l4.3-1.6c0.6,0,0.9,0.4,0.9,1.3l-0.4,5.3c-0.5,7.3-0.7,14.1-0.7,20.4c0,6.3,0.3,10.3,0.8,12
				c0.5,1.7,1.6,3.2,3.3,4.3c1.7,1.2,3.7,1.7,6,1.7c3.2,0,6.1-1,8.8-3.1c2.7-2.1,4.4-4.2,5.2-6.3c0.4-1.2,0.7-4.8,0.7-10.9
				c0-10.2-0.2-15.8-0.6-16.7c-0.3-0.7-1.9-1.1-4.7-1.1h-4.1V309c3.6-0.4,6.6-0.9,9.1-1.4c2.5-0.6,5.1-1.4,7.9-2.5
				c0.3-0.2,0.7-0.3,0.9-0.3c0.6,0,0.9,0.3,0.9,1l-0.2,4.8c-0.5,11.8-0.8,22.2-0.8,31.2c0,5,0.3,7.9,0.8,8.6
				c0.8,1.1,2.4,1.6,4.9,1.6h3v3c-4.3-0.2-8-0.4-11-0.4C732.7,354.6,730.4,354.8,728.2,355z"/>
			<path id="XMLID_309_" class="st2" d="M790.6,347.7l1.4,1.2l-2.1,3.3c-2.3,1.3-4.8,2.2-7.2,2.9c-2.5,0.6-5,1-7.6,1
				c-5.1,0-9.4-1-12.9-2.9c-3.5-1.9-6.3-4.7-8.2-8.4c-1.9-3.7-2.9-8-2.9-13c0-4.5,0.7-8.3,2.2-11.6c1.5-3.3,3.6-5.9,6.2-7.7
				c2.7-1.9,6-3.7,10-5.5c2.8-1.3,6-1.9,9.5-1.9c2.7,0,4.9,0.2,6.9,0.7c1.9,0.4,4,1.2,6.2,2.3c-0.9,4.6-1.3,9.1-1.4,13.7h-3.3V319
				c0-2.2-0.3-3.8-1-4.7c-0.6-0.9-2.1-1.8-4.4-2.7c-2.3-0.9-4.8-1.3-7.5-1.3c-4.7,0-8.2,1.4-10.8,4.3c-2.5,2.8-3.8,7.1-3.8,12.7
				c0,7.3,1.9,13.1,5.6,17.5c3.3,4,7.7,5.9,12.9,5.9c2.1,0,4.1-0.3,6.1-0.8C786.6,349.4,788.6,348.7,790.6,347.7z"/>
			<path id="XMLID_307_" class="st2" d="M814.5,314.8l6.8-6c1.6-1.5,3.1-2.5,4.7-3.1c1.5-0.6,3.4-0.8,5.6-0.8c3.8,0,7.2,0.8,10,2.3
				c2.8,1.5,4.8,3.5,5.8,5.9c1.1,2.4,1.6,6.5,1.6,12.2l-0.3,15.3c0,3.5,0.1,6.2,0.4,8.2c0.1,0.8,0.4,1.4,0.9,1.9
				c0.5,0.4,1.5,0.7,3,0.8l3.9,0.4v3c-3.3-0.2-6.6-0.4-9.8-0.4c-2.7,0-5.4,0.1-8.1,0.4c0.6-8.7,0.9-17.2,0.9-25.6
				c0-5.6-0.4-9.4-1.1-11.4c-0.7-2-2-3.6-3.8-4.8c-1.8-1.2-4.1-1.8-6.9-1.8c-2.9,0-5.5,0.7-7.8,2c-2.3,1.4-4,2.9-4.9,4.7
				c-0.6,1.3-0.9,4.3-0.9,9.1v9c0,8.2,0.2,12.8,0.6,13.6c0.4,0.9,1.8,1.4,4.1,1.6l4.5,0.4v3c-5.4-0.2-9.7-0.4-13-0.4
				c-3.4,0-7.9,0.1-13.4,0.4v-3l3.3-0.4c2-0.2,3.3-0.5,3.8-0.9c0.5-0.3,0.9-1.1,1-2.3c0.2-1.9,0.4-6,0.4-12.5v-34.9
				c0-9.2-0.2-14.4-0.7-15.5c-0.3-0.8-1.7-1.1-4.2-1.1h-3.6v-3.2c5.3-0.6,9.6-1.3,12.8-2.3l4.2-1.4c0.6,0,0.8,0.4,0.8,1.1l-0.2,2.1
				l-0.3,9.3c-0.2,4.7-0.3,8.3-0.3,10.9V314.8z"/>
			<path id="XMLID_304_" class="st2" d="M870.2,330c0.2,6.8,1.9,12,5.2,15.5c3.3,3.5,7.6,5.3,13,5.3c2.4,0,4.8-0.4,7.2-1.2
				c2.4-0.8,4.7-2,7.1-3.6l0.9,0.8l-1.7,4.3c-2.9,1.7-5.8,2.9-8.9,3.7c-3,0.8-6.2,1.2-9.4,1.2c-7,0-12.7-2.2-17-6.7
				c-4.3-4.4-6.4-10.4-6.4-18c0-5.8,1.2-10.8,3.6-15.1c1.6-2.8,4.5-5.4,8.8-7.8c4.3-2.4,8.4-3.6,12.5-3.6c6.1,0,10.9,1.8,14.5,5.4
				c3.6,3.6,5.4,8.6,5.4,15.1l-0.1,3.1c-2.3,0.6-4.4,0.9-6.5,1.1c-3.7,0.3-8.8,0.4-15.4,0.4H870.2z M870.3,326.1
				c5.3,0.2,11.2,0.4,17.7,0.4c2.6,0,5.1-0.1,7.5-0.4v-2.9c0-3-0.6-5.9-1.8-8.6c-0.8-1.7-2.1-3.1-4-4.2c-1.9-1.1-4.1-1.7-6.6-1.7
				c-3.9,0-7,1.4-9.3,4.2C871.6,315.7,870.4,320.1,870.3,326.1z"/>
			<path id="XMLID_302_" class="st2" d="M927.8,316.7c1.4-1.3,2.9-3,4.5-5.2c1.9-2.5,3.7-4.2,5.4-5.2c1.7-0.9,3.4-1.4,5.2-1.4
				c1.9,0,3.4,0.2,4.4,0.7c0.5,0.2,0.7,0.5,0.7,1l-0.1,0.5c-0.5,2.8-0.9,6.7-0.9,11.7h-2.3c-0.8-1.8-1.7-3-2.8-3.7
				c-1.1-0.7-2.4-1.1-3.9-1.1c-2,0-3.9,0.7-5.7,2.1c-1.7,1.4-2.9,3.3-3.5,5.8c-0.6,2.5-0.9,7.4-0.9,14.6c0,4.8,0.2,8.8,0.6,12.1
				c0.1,1.2,0.5,2,1,2.3c1.3,0.7,3.2,1.1,5.8,1.1h3.1v3c-5.3-0.2-10.3-0.4-15-0.4c-4.6,0-9.1,0.1-13.6,0.4v-3l5-0.4
				c1.8-0.1,2.9-0.5,3.3-1c0.5-0.5,0.8-2.2,0.9-5c0.2-5,0.4-10.9,0.4-17.7c0-8.3-0.3-13.2-1-14.6c-0.4-0.9-1.9-1.4-4.2-1.4h-4.3v-3
				c3.3-0.4,6.3-0.9,9-1.5c2.6-0.6,5-1.4,7-2.3c0.5-0.2,0.9-0.4,1.2-0.4c0.4,0,0.6,0.1,0.8,0.3c0.1,0.2,0.2,0.7,0.2,1.4L927.8,316.7
				z"/>
			<path id="XMLID_300_" class="st2" d="M957.9,339.2v3.4c0,2.7,0.2,4.4,0.7,5c0.9,1.1,2.6,2.2,5.3,3.2c2.6,1,5.3,1.6,8,1.6
				c3.6,0,6.5-1,8.7-2.9c2.2-1.9,3.4-4.2,3.4-6.9c0-2.1-0.7-3.8-2-5.1c-1.3-1.3-3.8-2.3-7.5-3.1c-6.9-1.4-11.4-2.6-13.6-3.6
				c-2.2-1-3.9-2.4-5-4.1c-1.1-1.7-1.7-3.8-1.7-6.3c0-4.6,1.7-8.3,5-11.2c3.3-2.9,8.1-4.3,14.2-4.3c4.8,0,9.7,1,14.5,2.9
				c-0.3,2.3-0.5,6.3-0.7,11.8h-3.1c-0.1-3-0.4-5-1-6c-0.8-1.3-2.2-2.4-4.3-3.5c-2.1-1-4.3-1.6-6.7-1.6c-3.1,0-5.6,0.8-7.5,2.4
				c-1.9,1.6-2.8,3.6-2.8,6c0,2.3,0.7,4.1,2.2,5.2c1.5,1.2,5.6,2.5,12.3,3.8c5,1,8.2,1.9,9.8,2.8c1.6,0.9,2.9,2.2,3.8,3.9
				c1,1.8,1.4,3.8,1.4,6.1c0,4.7-2,8.7-6,12.1c-4,3.4-9.3,5.1-16,5.1c-4.2,0-9-0.7-14.3-2c-0.9-0.2-1.4-0.6-1.4-1.1l0.2-0.7
				c0.1-0.5,0.3-1.4,0.4-2.8c0.3-3.4,0.5-6,0.5-7.8l-0.1-2.5H957.9z"/>
			<path id="XMLID_298_" class="st2" d="M1008.2,343.9c1.7,0,3.1,0.6,4.3,1.8c1.2,1.2,1.8,2.6,1.8,4.3c0,1.7-0.6,3.1-1.8,4.3
				c-1.2,1.2-2.6,1.8-4.3,1.8c-1.7,0-3.1-0.6-4.3-1.8c-1.2-1.2-1.8-2.6-1.8-4.3c0-1.7,0.6-3.1,1.8-4.3
				C1005.1,344.5,1006.5,343.9,1008.2,343.9z"/>
			<path id="XMLID_296_" class="st2" d="M1063.4,347.7l1.4,1.2l-2.1,3.3c-2.3,1.3-4.8,2.2-7.2,2.9c-2.5,0.6-5,1-7.6,1
				c-5.1,0-9.4-1-12.9-2.9c-3.5-1.9-6.3-4.7-8.2-8.4c-1.9-3.7-2.9-8-2.9-13c0-4.5,0.7-8.3,2.2-11.6c1.5-3.3,3.6-5.9,6.2-7.7
				c2.7-1.9,6-3.7,10-5.5c2.8-1.3,6-1.9,9.5-1.9c2.7,0,4.9,0.2,6.9,0.7c1.9,0.4,4,1.2,6.2,2.3c-0.9,4.6-1.3,9.1-1.4,13.7h-3.3V319
				c0-2.2-0.3-3.8-1-4.7c-0.6-0.9-2.1-1.8-4.4-2.7c-2.3-0.9-4.8-1.3-7.5-1.3c-4.7,0-8.2,1.4-10.8,4.3c-2.5,2.8-3.8,7.1-3.8,12.7
				c0,7.3,1.9,13.1,5.6,17.5c3.3,4,7.7,5.9,12.9,5.9c2.1,0,4.1-0.3,6.1-0.8C1059.4,349.4,1061.4,348.7,1063.4,347.7z"/>
			<path id="XMLID_293_" class="st2" d="M1072.2,330.2c0-4.8,1.1-9.1,3.3-12.9c2.2-3.8,5.3-6.9,9.3-9s8.5-3.3,13.6-3.3
				c7.3,0,13.2,2.2,17.7,6.5c4.4,4.3,6.6,10.1,6.6,17.4c0,8.6-2.9,15.4-8.6,20.4c-5.1,4.5-11.3,6.8-18.5,6.8c-6.9,0-12.5-2.3-16.8-7
				C1074.4,344.4,1072.2,338.1,1072.2,330.2z M1082,326.5c0,7.1,1.5,13.2,4.4,18.3c2.9,5.1,7.1,7.6,12.6,7.6c4.2,0,7.5-1.6,10.1-4.8
				c2.6-3.2,3.9-8,3.9-14.5c0-5.2-0.8-9.7-2.3-13.6c-1.5-3.8-3.5-6.6-6-8.3c-2.5-1.7-5.3-2.6-8.3-2.6c-2.7,0-5.2,0.7-7.4,2.1
				c-2.2,1.4-3.8,3.2-4.8,5.5C1082.7,319.4,1082,322.8,1082,326.5z"/>
			<path id="XMLID_291_" class="st2" d="M1146.3,314.2l6.9-6.2c1.1-1,2.3-1.7,3.5-2.1c1.8-0.6,3.6-0.9,5.3-0.9c3.9,0,7,0.7,9.4,2.1
				c2.4,1.4,4.5,3.9,6.5,7.5l6.7-6.1c1.1-1,2.5-1.8,4.2-2.4c2.2-0.8,4.3-1.1,6.3-1.1c3.1,0,5.9,0.7,8.5,2.2c2.5,1.5,4.4,3.3,5.6,5.6
				c1.2,2.3,1.8,5.5,1.8,9.4l-0.2,20.3c0,4.5,0.3,7.2,0.8,8c0.5,0.8,1.9,1.3,4,1.4l3.8,0.2v3l-2.5-0.1c-4-0.2-6.8-0.2-8.2-0.2
				c-2.2,0-4.7,0.1-7.7,0.4c0.5-6.4,0.7-13.8,0.7-22.4c0-7.2-0.3-12-0.9-14.2c-0.6-2.3-1.8-4-3.6-5.3c-1.8-1.3-4-1.9-6.6-1.9
				c-3,0-5.6,0.8-7.7,2.4c-2.1,1.6-3.5,3.6-4,5.8c-0.3,1.4-0.5,7.6-0.5,18.4c0,6.4,0.1,10,0.2,10.9c0.1,0.9,0.4,1.5,0.9,1.9
				c0.5,0.4,2,0.7,4.5,1l3.5,0.4v3c-6.1-0.2-10.6-0.4-13.5-0.4c-2.3,0-6.7,0.1-13.3,0.4v-3h3.5c2.1,0,3.4-0.3,4-0.9
				c0.6-0.6,1-2,1.1-4.1c0.3-5.7,0.4-11.6,0.4-17.7c0-5.5-0.4-9.3-1.1-11.4c-0.7-2.1-2-3.7-3.8-4.9c-1.8-1.2-3.9-1.8-6.4-1.8
				c-2.7,0-5.1,0.7-7.2,2.2c-2.2,1.5-3.7,3.3-4.5,5.4c-0.5,1.5-0.8,5.6-0.8,12.3c0,7.4,0.1,12.9,0.2,16.4c0.1,1.6,0.3,2.7,0.8,3.1
				c0.4,0.5,1.9,0.8,4.5,1l3.6,0.4v3c-4.3-0.2-8.4-0.4-12.2-0.4c-4.3,0-9.1,0.1-14.2,0.4v-3h3.9c2.2,0,3.6-0.6,4-1.8
				c0.4-1.2,0.7-7.7,0.7-19.5c0-8.6-0.1-13.8-0.2-15.3c-0.1-1.6-0.4-2.5-0.9-3c-0.5-0.4-2-0.6-4.4-0.6h-3.2V309
				c5.1-0.7,9.4-1.6,13.1-2.8l3.8-1.4c0.6,0,0.9,0.4,0.9,1.2l-0.1,1.9C1146.3,309.7,1146.3,311.9,1146.3,314.2z"/>
		</g>
	</g>
</g>
</svg>
