<?xml version="1.0" encoding="UTF-8" standalone="no"?>
<!-- Generator: Adobe Illustrator 19.0.0, SVG Export Plug-In . SVG Version: 6.00 Build 0)  -->

<svg
   xmlns:dc="http://purl.org/dc/elements/1.1/"
   xmlns:cc="http://creativecommons.org/ns#"
   xmlns:rdf="http://www.w3.org/1999/02/22-rdf-syntax-ns#"
   xmlns:svg="http://www.w3.org/2000/svg"
   xmlns="http://www.w3.org/2000/svg"
   xmlns:sodipodi="http://sodipodi.sourceforge.net/DTD/sodipodi-0.dtd"
   xmlns:inkscape="http://www.inkscape.org/namespaces/inkscape"
   version="1.1"
   id="Layer_1"
   x="0px"
   y="0px"
   viewBox="0 0 977 577"
   style="enable-background:new 0 0 977 577;"
   xml:space="preserve"
   inkscape:version="0.91 r13725"
   sodipodi:docname="SlickVouchers_svg.svg"><metadata
     id="metadata35"><rdf:RDF><cc:Work
         rdf:about=""><dc:format>image/svg+xml</dc:format><dc:type
           rdf:resource="http://purl.org/dc/dcmitype/StillImage" /><dc:title></dc:title></cc:Work></rdf:RDF></metadata><defs
     id="defs33" /><sodipodi:namedview
     pagecolor="#ffffff"
     bordercolor="#666666"
     borderopacity="1"
     objecttolerance="10"
     gridtolerance="10"
     guidetolerance="10"
     inkscape:pageopacity="0"
     inkscape:pageshadow="2"
     inkscape:window-width="2291"
     inkscape:window-height="1768"
     id="namedview31"
     showgrid="false"
     inkscape:zoom="1.1791198"
     inkscape:cx="554.34848"
     inkscape:cy="441.30081"
     inkscape:window-x="86"
     inkscape:window-y="56"
     inkscape:window-maximized="0"
     inkscape:current-layer="XMLID_159_" /><style
     type="text/css"
     id="style3">
	.st0{fill:url(#XMLID_2_);}
	.st1{fill:#1B1464;}
	.st2{fill:#F7931E;}
	.st3{fill:#AB0039;}
	.st4{font-family:'BookAntiqua';}
	.st5{font-size:80px;}
</style><g
     id="XMLID_581_"><radialGradient
       id="XMLID_2_"
       cx="488.5"
       cy="288.5"
       r="401.5379"
       gradientUnits="userSpaceOnUse"><stop
         offset="0.2296"
         style="stop-color:#FFFFFF"
         id="stop7" /><stop
         offset="0.2735"
         style="stop-color:#E6ECF2"
         id="stop9" /><stop
         offset="0.3712"
         style="stop-color:#B5C6D9"
         id="stop11" /><stop
         offset="0.4716"
         style="stop-color:#8BA5C3"
         id="stop13" /><stop
         offset="0.5728"
         style="stop-color:#698AB1"
         id="stop15" /><stop
         offset="0.6752"
         style="stop-color:#4E76A4"
         id="stop17" /><stop
         offset="0.7794"
         style="stop-color:#3B679A"
         id="stop19" /><stop
         offset="0.8862"
         style="stop-color:#305E94"
         id="stop21" /><stop
         offset="1"
         style="stop-color:#2C5B92"
         id="stop23" /></radialGradient><rect
       id="XMLID_203_"
       x="-0.5"
       y="-0.2"
       class="st0"
       width="978"
       height="577.5" /><g
       id="XMLID_160_"><polygon
         id="XMLID_164_"
         class="st1"
         points="494.8,170.3 488,165.6 481.1,170.3 427.2,207.2 427.2,188.5 397,188.5 397,227.9     365.5,249.5 379.1,269.3 487.9,194.9 597.9,270 611.5,250.2   " /><path
         id="XMLID_161_"
         class="st2"
         d="M488.5,223.5c-51.9,0-93.9,42.1-93.9,93.9c0,51.9,42.1,93.9,93.9,93.9    c51.9,0,93.9-42.1,93.9-93.9C582.4,265.6,540.4,223.5,488.5,223.5z M500.1,380.7v20.9h-23.9v-19.3c-11.5-0.9-23-4.4-30.1-9.1    l-2.4-1.6l7.5-26l4.3,2.5c8.7,5.1,19.2,8.1,28.7,8.1c10.3,0,16.9-4.6,16.9-11.6c0-4.8-2.3-10.1-18.9-16.2    c-18.1-6.5-36.5-16.3-36.5-38.8c0-18.1,12-31.9,31.6-36.5v-20h23.9v18.5c9.3,0.7,17.3,2.8,24.9,6.7l2.9,1.5l-7.5,25.5l-5.2-2.4    c-4.7-2.2-12.4-5.8-24-5.8c-9.2,0-14.8,3.7-14.8,9.9c0,5.4,5.2,9.2,21.3,15.6c24,9,34.2,20.9,34.2,39.9    C533.2,361.5,520.3,376.2,500.1,380.7z" /></g><g
       id="XMLID_159_"
       transform="translate(76.683713,0)"><text
         id="XMLID_15_"
         transform="translate(151.5271,485.5)"
         class="st3 st4 st5"
         style="font-size:80px;font-family:BookAntiqua;fill:#ab0039;stroke-width:1;stroke-miterlimit:4;stroke-dasharray:none;stroke:#969696;stroke-opacity:1;"><tspan
           style="stroke:#969696;stroke-opacity:1;stroke-width:1;stroke-miterlimit:4;stroke-dasharray:none;fill:#ab2b00;fill-opacity:1;"
           id="tspan4163">Slick Vouchers</tspan></text>
</g></g></svg>