<?xml version="1.0" encoding="UTF-8" standalone="no"?>
<!-- Generator: Adobe Illustrator 19.0.0, SVG Export Plug-In . SVG Version: 6.00 Build 0)  -->

<svg
   xmlns:dc="http://purl.org/dc/elements/1.1/"
   xmlns:cc="http://creativecommons.org/ns#"
   xmlns:rdf="http://www.w3.org/1999/02/22-rdf-syntax-ns#"
   xmlns:svg="http://www.w3.org/2000/svg"
   xmlns="http://www.w3.org/2000/svg"
   xmlns:sodipodi="http://sodipodi.sourceforge.net/DTD/sodipodi-0.dtd"
   xmlns:inkscape="http://www.inkscape.org/namespaces/inkscape"
   version="1.1"
   id="Layer_1"
   x="0px"
   y="0px"
   viewBox="0 0 353 235"
   xml:space="preserve"
   inkscape:version="0.91 r13725"
   sodipodi:docname="svg_file_1.svg"
   width="353"
   height="235"><metadata
     id="metadata18"><rdf:RDF><cc:Work
         rdf:about=""><dc:format>image/svg+xml</dc:format><dc:type
           rdf:resource="http://purl.org/dc/dcmitype/StillImage" /><dc:title></dc:title></cc:Work></rdf:RDF></metadata><defs
     id="defs16" /><sodipodi:namedview
     pagecolor="#ffffff"
     bordercolor="#666666"
     borderopacity="1"
     objecttolerance="10"
     gridtolerance="10"
     guidetolerance="10"
     inkscape:pageopacity="0"
     inkscape:pageshadow="2"
     inkscape:window-width="1851"
     inkscape:window-height="1426"
     id="namedview14"
     showgrid="false"
     inkscape:zoom="1.6970563"
     inkscape:cx="223.4873"
     inkscape:cy="284.74676"
     inkscape:window-x="0"
     inkscape:window-y="0"
     inkscape:window-maximized="0"
     inkscape:current-layer="XMLID_1_" /><style
     type="text/css"
     id="style3">
	.st0{fill:#FCDDB9;}
	.st1{fill:#1B1464;}
	.st2{fill:#F7931E;}
	.st3{font-family:'BookAntiqua';}
	.st4{font-size:41.7664px;}
</style><g
     id="XMLID_1_"
     transform="translate(0,-325)"><path
       class="st0"
       d="m 269.60087,422.55578 c 0,50.5 -41,91.5 -91.5,91.5 -50.5,0 -91.500001,-41 -91.500001,-91.5 0,-50.5 41.000001,-91.5 91.500001,-91.5 50.5,0 91.5,40.9 91.5,91.5"
       id="path6"
       inkscape:connector-curvature="0"
       style="fill:#fcddb9" /><polygon
       class="st1"
       points="535.6,238.6 543.9,226.4 472.2,177.4 468.1,174.5 463.9,177.4 430.8,200 430.8,188.5 412.2,188.5 412.2,212.8 392.9,226 401.2,238.2 468,192.4 "
       id="polygon8"
       transform="translate(-290.29913,172.55578)"
       style="fill:#1b1464" /><path
       class="st2"
       d="m 175.80087,382.65578 c -31.9,0 -57.7,25.8 -57.7,57.7 0,31.9 25.8,57.7 57.7,57.7 31.9,0 57.7,-25.8 57.7,-57.7 0,-31.9 -25.9,-57.7 -57.7,-57.7 m 7.1,96.5 0,12.8 -14.7,0 0,-11.8 c -7.1,-0.6 -14.1,-2.7 -18.5,-5.6 l -1.5,-1 4.6,-16 2.6,1.6 c 5.4,3.2 11.8,5 17.6,5 6.3,0 10.4,-2.8 10.4,-7.1 0,-3 -1.4,-6.2 -11.6,-9.9 -11.1,-4 -22.4,-10 -22.4,-23.8 0,-11.1 7.4,-19.6 19.4,-22.4 l 0,-12.4 14.7,0 0,11.3 c 5.7,0.4 10.6,1.7 15.3,4.1 l 1.8,0.9 -4.6,15.6 -3.2,-1.5 c -2.9,-1.3 -7.6,-3.6 -14.7,-3.6 -5.7,0 -9.1,2.3 -9.1,6.1 0,3.3 3.2,5.6 13.1,9.6 14.7,5.5 21,12.9 21,24.5 0.1,11.8 -7.8,20.8 -20.2,23.6"
       id="path10"
       inkscape:connector-curvature="0"
       style="fill:#f7931e" /><text
       class="st2 st3 st4"
       id="text12"
       x="2.4493687"
       y="559.44934"
       style="font-size:41.76639938px;font-family:BookAntiqua;fill:#f7931e">SlickVouchers.com</text>
</g></svg>